<svg id="Layer_1" data-name="Layer 1" xmlns="http://www.w3.org/2000/svg" viewBox="0 0 600 158.27"><defs><style>.cls-1{fill:#74bf4e;fill-rule:evenodd;}.cls-2{fill:#afd579;}.cls-3{fill:#414142;}.cls-4{fill:#231f20;}</style></defs><title>ENGAGER_BANNER_600</title><path class="cls-1" d="M131.66,82.77L39.4,122.64,80.29,52.28l51.36,22.2q2,2.08,1.71,4.13Q133.74,80.69,131.66,82.77ZM63.82,76.7L39.4,34.62,78.45,51.53Z"/><path class="cls-2" d="M79.12,158.27c-21.72,0-40.54-7.8-55.93-23.19S0,100.86,0,79.12,7.8,38.58,23.19,23.19,57.39,0,79.12,0s40.57,7.8,56,23.19,23.19,34.2,23.19,55.93-7.8,40.57-23.19,56S100.86,158.27,79.12,158.27Zm0-145.93c-18.59,0-34,6.4-47.21,19.58S12.33,60.53,12.33,79.12s6.4,34.07,19.58,47.24,28.61,19.58,47.21,19.58,34.07-6.4,47.24-19.58,19.58-28.63,19.58-47.24-6.4-34-19.58-47.21S97.73,12.33,79.12,12.33Z"/><path class="cls-3" d="M179.21,98.86h7.92V58.53h-7.92V52.16h49.14V70.44h-5.77c-2.37-9.92-3.4-12.06-10-12.06H198.45V75.25h4.81c5.11,0,5.62-.81,6.88-7.7h5.55V88.95h-5.55c-1.11-7-1.85-7.85-6.88-7.85h-4.81V98.94h13.84c7.77,0,8.73-2.74,11-13.84h5.77v20.13H179.21V98.86Z"/><path class="cls-3" d="M252.54,64.08H251.8V98.86h7.7v6.36H237.67V98.86h7.4V58.53h-7.4V52.16h20.72l24.05,37.75h0.74V58.53h-7.7V52.16h21.83v6.36h-7.4v47.66H279.41Z"/><path class="cls-3" d="M329.21,106.49c-15,0-25.46-11.69-25.46-27.83,0-15.69,11.92-27.83,25.61-27.83,6.51,0,11.47,2.52,14.73,6.51l1.63-6.29h6.51V71.7H344.9c-3.26-9.62-8-14.73-14.51-14.73-8,0-14.06,6.22-14.06,21.17,0,13.77,5,21.76,14.65,21.76a9.9,9.9,0,0,0,8.73-4.66c1.55-2.07,2.22-5.85,2.22-9.18V84.43h-9.25V78.07h26.94v6.36h-6.51v21.39h-6.44l-2.74-7.62A16.11,16.11,0,0,1,329.21,106.49Z"/><path class="cls-3" d="M397.44,87.61H378.87l-3.92,11.25h6.66v6.36H361.84V98.86h5.85L385.3,51.79h11.25l17,47.07h6.74v6.36H393.59V98.86h7.7Zm-16.58-5.7h14.65l-7-20.58h-0.3Z"/><path class="cls-3" d="M448.72,106.49c-15,0-25.46-11.69-25.46-27.83,0-15.69,11.92-27.83,25.61-27.83,6.51,0,11.47,2.52,14.73,6.51l1.63-6.29h6.51V71.7h-7.33c-3.26-9.62-8-14.73-14.51-14.73-8,0-14.06,6.22-14.06,21.17,0,13.77,5,21.76,14.65,21.76a9.9,9.9,0,0,0,8.73-4.66c1.55-2.07,2.22-5.85,2.22-9.18V84.43H452.2V78.07h26.94v6.36h-6.51v21.39h-6.44l-2.74-7.62A16.12,16.12,0,0,1,448.72,106.49Z"/><path class="cls-3" d="M484.17,98.86h7.92V58.53h-7.92V52.16h49.14V70.44h-5.77c-2.37-9.92-3.41-12.06-10-12.06H503.41V75.25h4.81c5.11,0,5.62-.81,6.88-7.7h5.55V88.95H515.1c-1.11-7-1.85-7.85-6.88-7.85h-4.81V98.94h13.84c7.77,0,8.73-2.74,11-13.84h5.77v20.13H484.17V98.86Z"/><path class="cls-3" d="M561.65,98.86h8v6.36H542.41V98.86h7.92V58.53h-7.92V52.16h28c16.13,0,21.09,6.88,21.09,13.54,0,6.07-3.7,11.54-15.25,13V79.4c9.33,1.26,12.29,5.55,12.66,11.55l0.3,4.22c0.22,3.11,1,4,2.44,4,1.26,0,2.22-1.11,3.4-4.22l4.29,1.56c-1.63,5.7-4.74,9.77-10.88,9.77-7,0-11-3.55-11-11.77l-0.07-4.22c-0.15-5.7-1.41-8.29-8.07-8.29h-7.62V98.86Zm7.62-22.8c7.18,0,9.84-3,9.84-9.25,0-5.55-2.07-8.51-9.33-8.51h-8.14V76.07h7.62Z"/><path class="cls-4" d="M181.9,140.5a2.58,2.58,0,0,1,.8-1.93c0.82-.84,2-1.15,4.06-1.44,1.36-.21,1.59-0.23,1.59-0.62v-1.07c0-1.38-.66-1.89-2.1-1.89a3.39,3.39,0,0,0-1.71.41,1.33,1.33,0,0,1-.76,2.47,1.38,1.38,0,0,1-1.48-1.4c0-1.75,2.08-2.76,4.53-2.76s3.93,1.09,3.93,3.33v5.31a0.61,0.61,0,0,0,.7.74,1.11,1.11,0,0,0,.82-0.89l0.86,0.47a2.56,2.56,0,0,1-2.49,2,1.88,1.88,0,0,1-2-2h-0.12a3.89,3.89,0,0,1-3.46,2C183.1,143.28,181.9,142.13,181.9,140.5Zm6.44-1v-1.69a3.74,3.74,0,0,1-1.05.23c-2.14.35-2.8,0.68-2.8,2a1.52,1.52,0,0,0,1.67,1.67A2.26,2.26,0,0,0,188.34,139.49Z"/><path class="cls-4" d="M193.82,137.95a5.47,5.47,0,0,1,5.6-5.7c2.49,0,4.24,1.65,4.24,3.09a1.66,1.66,0,0,1-1.59,1.92,1.42,1.42,0,0,1-1.5-1.46,1.65,1.65,0,0,1,.93-1.42,2.37,2.37,0,0,0-2.08-.89c-1.61,0-2.94,1.48-2.94,4.2s1.11,4.1,3.19,4.1a3,3,0,0,0,2.84-2.22h1.26a4.51,4.51,0,0,1-4.65,3.79A5,5,0,0,1,193.82,137.95Z"/><path class="cls-4" d="M209.36,129.66v2.9h3.48v1.5h-3.48v6.11c0,1,.31,1.56,1.24,1.56,0.66,0,1.13-.6,1.61-1.87l1.11,0.43c-0.6,2.16-1.81,3-3.44,3a2.69,2.69,0,0,1-3-3v-6.28h-2.06v-1.5h2.08v-2.63Z"/><path class="cls-4" d="M214.65,141.51h1.89v-7.45h-1.89v-1.63H219v9.08h1.91v1.63h-6.24v-1.63ZM216,128.73a1.58,1.58,0,0,1,1.63-1.67,1.53,1.53,0,0,1,1.63,1.63,1.55,1.55,0,0,1-1.63,1.65A1.53,1.53,0,0,1,216,128.73Z"/><path class="cls-4" d="M222.43,137.83a5.28,5.28,0,0,1,5.43-5.58,5.13,5.13,0,0,1,5.41,5.5,5.27,5.27,0,0,1-5.41,5.6A5.13,5.13,0,0,1,222.43,137.83Zm8.17,0c0-2.94-1.05-4.22-2.84-4.22s-2.66,1.3-2.66,4.22,1.07,4.24,2.84,4.24S230.6,140.71,230.6,137.79Z"/><path class="cls-4" d="M235.23,141.51h1.69v-7.45h-1.69v-1.63h4v2.74c1.11-2,2.37-2.88,4-2.88,1.83,0,2.92,1.3,2.92,3.42v5.81h1.69v1.63h-5.6v-1.63h1.48v-5.08a2.51,2.51,0,0,0-.56-1.81,1.66,1.66,0,0,0-1.21-.45c-1.28,0-2.63,1.26-2.63,3.27v4.08h1.48v1.63h-5.6v-1.63Z"/><path class="cls-4" d="M249.54,140.5a2.58,2.58,0,0,1,.8-1.93c0.82-.84,2-1.15,4.06-1.44,1.36-.21,1.59-0.23,1.59-0.62v-1.07c0-1.38-.66-1.89-2.1-1.89a3.39,3.39,0,0,0-1.71.41,1.33,1.33,0,0,1-.76,2.47,1.38,1.38,0,0,1-1.48-1.4c0-1.75,2.08-2.76,4.53-2.76s3.93,1.09,3.93,3.33v5.31a0.61,0.61,0,0,0,.7.74,1.11,1.11,0,0,0,.82-0.89l0.86,0.47a2.56,2.56,0,0,1-2.49,2,1.88,1.88,0,0,1-2-2h-0.12a3.89,3.89,0,0,1-3.46,2C250.73,143.28,249.54,142.13,249.54,140.5Zm6.44-1v-1.69a3.74,3.74,0,0,1-1.05.23c-2.14.35-2.8,0.68-2.8,2a1.52,1.52,0,0,0,1.67,1.67A2.26,2.26,0,0,0,256,139.49Z"/><path class="cls-4" d="M262.38,128.87H260.7v-1.73h4.12v7.45a4,4,0,0,1,3.54-2.35,3.64,3.64,0,0,1,2.76,1.05,6,6,0,0,1,1.46,4.47,6.25,6.25,0,0,1-1.56,4.38,4.14,4.14,0,0,1-2.86,1.19,4,4,0,0,1-3.6-2.2l-0.82,2.14h-1.34V128.87Zm7.51,8.89c0-2.51-.84-3.93-2.35-3.93s-2.82,1.79-2.82,4.2,1.32,3.77,2.82,3.77S269.9,140.38,269.9,137.76Z"/><path class="cls-4" d="M274.3,141.51h1.89V128.87H274.3v-1.73h4.32v14.37h1.89v1.63H274.3v-1.63Z"/><path class="cls-4" d="M284.78,138c0.08,2.61,1.19,3.81,3.19,3.81a2.89,2.89,0,0,0,2.86-2h1.25a4.41,4.41,0,0,1-4.69,3.5c-3.33,0-5.25-2.32-5.25-5.43a5.37,5.37,0,0,1,5.33-5.66c3.27,0,4.75,2.78,4.67,5.74h-7.37Zm0-1.17h4.9c-0.16-2-.82-3.27-2.37-3.27S285,134.43,284.8,136.82Z"/><path class="cls-4" d="M298.61,137.95a5.47,5.47,0,0,1,5.6-5.7c2.49,0,4.24,1.65,4.24,3.09a1.66,1.66,0,0,1-1.58,1.92,1.42,1.42,0,0,1-1.5-1.46,1.65,1.65,0,0,1,.93-1.42,2.37,2.37,0,0,0-2.08-.89c-1.6,0-2.94,1.48-2.94,4.2s1.11,4.1,3.19,4.1a3,3,0,0,0,2.84-2.22h1.26a4.51,4.51,0,0,1-4.65,3.79A5,5,0,0,1,298.61,137.95Z"/><path class="cls-4" d="M311.62,139.86v-5.81H310v-1.63h4.1v6.71a2.57,2.57,0,0,0,.56,1.83,1.57,1.57,0,0,0,1.17.43c1.26,0,2.62-1.23,2.62-3.27v-4.08h-1.73v-1.63h4.16v9.08h1.69v1.63h-4V140.4c-1.11,2-2.37,2.9-4,2.9C312.67,143.3,311.62,142,311.62,139.86Z"/><path class="cls-4" d="M324.3,139.33h1.48a4,4,0,0,0,3.44,2.8c1.19,0,1.71-.6,1.71-1.42s-0.68-1.32-2.8-1.89c-2.57-.72-3.66-1.61-3.66-3.33s1.5-3.23,3.75-3.23a3.11,3.11,0,0,1,2.68,1.24l0.27-1.24h1.46v3.66h-1.48c-0.74-1.5-1.5-2.45-2.88-2.45a1.42,1.42,0,0,0-1.6,1.3c0,0.89.78,1.34,2.72,1.85,2.45,0.68,3.71,1.46,3.71,3.33a3.61,3.61,0,0,1-3.87,3.4,4.05,4.05,0,0,1-3.19-1.4l-0.29,1.4H324.3v-4Z"/><path class="cls-4" d="M338.75,129.66v2.9h3.48v1.5h-3.48v6.11c0,1,.31,1.56,1.24,1.56,0.66,0,1.13-.6,1.6-1.87l1.11,0.43c-0.6,2.16-1.81,3-3.44,3a2.69,2.69,0,0,1-3-3v-6.28h-2.06v-1.5h2.08v-2.63Z"/><path class="cls-4" d="M344,137.83a5.28,5.28,0,0,1,5.44-5.58,5.13,5.13,0,0,1,5.41,5.5,5.27,5.27,0,0,1-5.41,5.6A5.13,5.13,0,0,1,344,137.83Zm8.17,0c0-2.94-1-4.22-2.84-4.22s-2.65,1.3-2.65,4.22,1.07,4.24,2.84,4.24S352.13,140.71,352.13,137.79Z"/><path class="cls-4" d="M371.31,132.29c1.81,0,2.82,1.3,2.82,3.42v5.81h1.69v1.63h-5.5v-1.63h1.38v-5.08a2.59,2.59,0,0,0-.53-1.85,1.53,1.53,0,0,0-1.13-.41,3,3,0,0,0-2.53,3.27v4.08h1.38v1.63H363.7v-1.63h1.38v-5.08a2.7,2.7,0,0,0-.53-1.85,1.56,1.56,0,0,0-1.13-.41c-1.15,0-2.53,1.26-2.53,3.27v4.08h1.38v1.63h-5.5v-1.63h1.69v-7.45h-1.69v-1.63h4v2.74c1.11-2,2.41-2.88,3.89-2.88s2.59,0.86,2.76,2.74C368.6,133.11,369.85,132.29,371.31,132.29Z"/><path class="cls-4" d="M380,138c0.08,2.61,1.19,3.81,3.19,3.81a2.88,2.88,0,0,0,2.86-2h1.26a4.41,4.41,0,0,1-4.69,3.5c-3.33,0-5.25-2.32-5.25-5.43a5.38,5.38,0,0,1,5.33-5.66c3.27,0,4.75,2.78,4.67,5.74H380Zm0-1.17h4.9c-0.17-2-.82-3.27-2.37-3.27S380.19,134.43,380,136.82Z"/><path class="cls-4" d="M389.26,141.51H391v-7.45h-1.69v-1.63h4V135a3.43,3.43,0,0,1,3.19-2.68,1.82,1.82,0,0,1,1.94,1.87,1.55,1.55,0,0,1-1.48,1.6,1.41,1.41,0,0,1-1.54-1.42,2,2,0,0,1,0-.35c-0.95,0-1.69,1.05-2.06,2.43v5.08h2v1.63h-6.13v-1.63Z"/><path class="cls-4" d="M404.35,141.51h1.89v-7.45h-1.89v-1.63h4.32v9.08h1.92v1.63h-6.24v-1.63Zm1.34-12.78a1.58,1.58,0,0,1,1.63-1.67,1.53,1.53,0,0,1,1.63,1.63,1.55,1.55,0,0,1-1.63,1.65A1.53,1.53,0,0,1,405.69,128.73Z"/><path class="cls-4" d="M412.11,141.51h1.69v-7.45h-1.69v-1.63h4v2.74c1.11-2,2.37-2.88,4-2.88,1.83,0,2.92,1.3,2.92,3.42v5.81h1.69v1.63h-5.6v-1.63h1.48v-5.08a2.52,2.52,0,0,0-.56-1.81,1.66,1.66,0,0,0-1.22-.45c-1.28,0-2.63,1.26-2.63,3.27v4.08h1.48v1.63h-5.6v-1.63Z"/><path class="cls-4" d="M426.48,139.33H428a4,4,0,0,0,3.44,2.8c1.19,0,1.71-.6,1.71-1.42s-0.68-1.32-2.8-1.89c-2.57-.72-3.66-1.61-3.66-3.33s1.5-3.23,3.75-3.23a3.11,3.11,0,0,1,2.68,1.24l0.27-1.24h1.46v3.66h-1.48c-0.74-1.5-1.5-2.45-2.88-2.45a1.42,1.42,0,0,0-1.6,1.3c0,0.89.78,1.34,2.72,1.85,2.45,0.68,3.71,1.46,3.71,3.33a3.61,3.61,0,0,1-3.87,3.4,4.05,4.05,0,0,1-3.19-1.4l-0.29,1.4h-1.42v-4Z"/><path class="cls-4" d="M437.2,141.51h1.89v-7.45H437.2v-1.63h4.32v9.08h1.92v1.63H437.2v-1.63Zm1.34-12.78a1.58,1.58,0,0,1,1.63-1.67,1.53,1.53,0,0,1,1.63,1.63,1.55,1.55,0,0,1-1.63,1.65A1.53,1.53,0,0,1,438.54,128.73Z"/><path class="cls-4" d="M449.76,139.12c-0.49,0-1-.06-1.42-0.06a1,1,0,0,0-1.11.9c0,0.54.41,0.89,1.59,0.89h2.84c2.53,0,3.52,1.11,3.52,2.66,0,1.93-1.83,3.54-5.76,3.54-3,0-4.78-1-4.78-2.39a2.36,2.36,0,0,1,2.31-2.08v-0.1c-1.28-.39-1.77-1.11-1.77-1.91a2.45,2.45,0,0,1,2.16-2,3,3,0,0,1-2-2.86c0-2.18,1.85-3.48,4.43-3.48a6,6,0,0,1,1.75.25,3.54,3.54,0,0,1,3-2.16,1.45,1.45,0,0,1,1.6,1.4,1.16,1.16,0,0,1-1.15,1.21,1,1,0,0,1-1.07-1,1.23,1.23,0,0,1,0-.27,1.83,1.83,0,0,0-1.44,1.23,3.09,3.09,0,0,1,1.73,2.72C454.16,137.89,452.33,139.12,449.76,139.12Zm3.29,5c0-.7-0.43-1.19-1.67-1.19h-2.65c-1.36,0-2,.49-2,1.38s0.58,1.5,2.86,1.5C451.71,145.79,453.05,145.13,453.05,144.1Zm-1.38-8.42c0-1.38-.72-2.35-2-2.35s-1.89.72-1.89,2.37,0.74,2.33,2,2.33S451.67,137.25,451.67,135.69Z"/><path class="cls-4" d="M456.39,141.51h1.67V128.87h-1.67v-1.73h4.1V135c1.13-1.93,2.35-2.76,3.91-2.76,1.83,0,2.94,1.3,2.94,3.42v5.81H469v1.63h-5.6v-1.63h1.5v-5.08a2.52,2.52,0,0,0-.58-1.81,1.66,1.66,0,0,0-1.22-.45,3,3,0,0,0-2.63,3.27v4.08H462v1.63h-5.6v-1.63Z"/><path class="cls-4" d="M474.23,129.66v2.9h3.48v1.5h-3.48v6.11c0,1,.31,1.56,1.24,1.56,0.66,0,1.13-.6,1.6-1.87l1.11,0.43c-0.6,2.16-1.81,3-3.44,3a2.69,2.69,0,0,1-3-3v-6.28h-2.06v-1.5h2.08v-2.63Z"/><path class="cls-4" d="M479.65,139.33h1.48a4,4,0,0,0,3.44,2.8c1.19,0,1.71-.6,1.71-1.42s-0.68-1.32-2.8-1.89c-2.57-.72-3.66-1.61-3.66-3.33s1.5-3.23,3.75-3.23a3.11,3.11,0,0,1,2.68,1.24l0.27-1.24H488v3.66h-1.48c-0.74-1.5-1.5-2.45-2.88-2.45a1.42,1.42,0,0,0-1.6,1.3c0,0.89.78,1.34,2.72,1.85,2.45,0.68,3.71,1.46,3.71,3.33a3.61,3.61,0,0,1-3.87,3.4,4.05,4.05,0,0,1-3.19-1.4l-0.29,1.4h-1.42v-4Z"/><path class="cls-4" d="M494.82,137.83a5.28,5.28,0,0,1,5.44-5.58,5.13,5.13,0,0,1,5.41,5.5,5.27,5.27,0,0,1-5.41,5.6A5.13,5.13,0,0,1,494.82,137.83Zm8.17,0c0-2.94-1-4.22-2.84-4.22s-2.65,1.3-2.65,4.22,1.07,4.24,2.84,4.24S503,140.71,503,137.79Z"/><path class="cls-4" d="M507.62,141.51h1.69v-7.45h-1.69v-1.63h4v2.74c1.11-2,2.37-2.88,4-2.88,1.83,0,2.92,1.3,2.92,3.42v5.81h1.69v1.63h-5.6v-1.63h1.48v-5.08a2.52,2.52,0,0,0-.56-1.81,1.66,1.66,0,0,0-1.22-.45c-1.28,0-2.63,1.26-2.63,3.27v4.08h1.48v1.63h-5.6v-1.63Z"/><path class="cls-4" d="M526,141.51h1.67V128.87H526v-1.73h4.1V135c1.13-1.93,2.35-2.76,3.91-2.76,1.83,0,2.94,1.3,2.94,3.42v5.81h1.67v1.63h-5.6v-1.63h1.5v-5.08a2.52,2.52,0,0,0-.58-1.81,1.66,1.66,0,0,0-1.22-.45,3,3,0,0,0-2.63,3.27v4.08h1.5v1.63H526v-1.63Z"/><path class="cls-4" d="M542.82,138c0.08,2.61,1.19,3.81,3.19,3.81a2.88,2.88,0,0,0,2.86-2h1.26a4.41,4.41,0,0,1-4.69,3.5c-3.33,0-5.25-2.32-5.25-5.43a5.38,5.38,0,0,1,5.33-5.66c3.27,0,4.75,2.78,4.67,5.74h-7.37Zm0-1.17h4.9c-0.17-2-.82-3.27-2.37-3.27S543,134.43,542.84,136.82Z"/><path class="cls-4" d="M552.1,141.51h1.69v-7.45H552.1v-1.63h4V135a3.43,3.43,0,0,1,3.19-2.68,1.82,1.82,0,0,1,1.94,1.87,1.55,1.55,0,0,1-1.48,1.6,1.41,1.41,0,0,1-1.54-1.42,2,2,0,0,1,0-.35c-0.95,0-1.69,1.05-2.06,2.43v5.08h2v1.63H552.1v-1.63Z"/><path class="cls-4" d="M562.33,137.83a5.28,5.28,0,0,1,5.44-5.58,5.13,5.13,0,0,1,5.41,5.5,5.27,5.27,0,0,1-5.41,5.6A5.13,5.13,0,0,1,562.33,137.83Zm8.17,0c0-2.94-1-4.22-2.84-4.22s-2.65,1.3-2.65,4.22,1.07,4.24,2.84,4.24S570.5,140.71,570.5,137.79Z"/><path class="cls-4" d="M582,136.76l3.66,4.76h1.26v1.63h-5.25v-1.61H583l-2.51-3.4L579,139.6v1.93h1.3v1.61h-5.39v-1.63h1.67V128.87h-1.67v-1.73H579v10.79l3.83-3.89h-1.75v-1.61h5.31v1.63h-1.6Z"/><path class="cls-4" d="M589.11,139.86v-5.81h-1.67v-1.63h4.1v6.71a2.57,2.57,0,0,0,.56,1.83,1.57,1.57,0,0,0,1.17.43c1.26,0,2.62-1.23,2.62-3.27v-4.08h-1.73v-1.63h4.16v9.08H600v1.63h-4V140.4c-1.11,2-2.37,2.9-4,2.9C590.16,143.3,589.11,142,589.11,139.86Z"/></svg>