<svg id="Layer_1" data-name="Layer 1" xmlns="http://www.w3.org/2000/svg" viewBox="0 0 75 15.23"><defs><style>.cls-1{fill:#b0d579;}.cls-2{fill:#71bf4e;}.cls-3{fill:#fff;}</style></defs><title>GoNimbly_Horizontal_75</title><path class="cls-1" d="M60.53,12.24c5.27,3.76,11.65-.47,13.14-2,3-3.13.42-7.9-2.76-9-1.72-.58-7.63-1.25-10,1.84S58.44,10.75,60.53,12.24Z"/><path class="cls-2" d="M15.37,4.67a2.28,2.28,0,0,1,1-.22,1,1,0,0,1,.85.53,1.86,1.86,0,0,1,.41.79c0,0.08-.1.09-0.23,0.09l-0.28,0a0.94,0.94,0,0,1,.48,1,2.11,2.11,0,0,1-.12.75c-0.45,1.12-2.2,2.74-3.55,2.74a1.14,1.14,0,0,1-.66-0.17,3.59,3.59,0,0,1-1.33-2.1C11.9,6.72,13.93,5.34,15.37,4.67Zm1,1.38C14.87,6.59,13,8.11,13,8.92a0.4,0.4,0,0,0,.35.36,5.07,5.07,0,0,0,1.74-.9,2.74,2.74,0,0,0,1-1.12A3.57,3.57,0,0,1,16,6.75,1.15,1.15,0,0,1,16.39,6.05Z"/><path class="cls-2" d="M22.56,9.14a3.17,3.17,0,0,1,1.15-1.83,0.15,0.15,0,0,0,.05-0.09,0,0,0,0,0,0,0,0.38,0.38,0,0,0-.17.06,23,23,0,0,0-3.34,3,0.23,0.23,0,0,1-.18.13,0.54,0.54,0,0,1-.15-0.05,1.65,1.65,0,0,1-.72-1.18,0.87,0.87,0,0,1,.27-0.53,39.77,39.77,0,0,0,3.37-3.54A0.16,0.16,0,0,1,22.94,5a1.12,1.12,0,0,1,.58.77,3.93,3.93,0,0,1-.66,1c0.15,0,1.51-.93,2.81-1.56l0.12,0a1.65,1.65,0,0,1,1.08,1,0.28,0.28,0,0,1-.12.22c-0.88.8-2.85,2.43-2.85,2.94a0.19,0.19,0,0,0,.19.21A8.16,8.16,0,0,0,27,7.57a0.14,0.14,0,0,1,.12-0.05,0.35,0.35,0,0,1,.3.36,4,4,0,0,1-1.22,1.31,4.25,4.25,0,0,1-2.32,1.24A1.32,1.32,0,0,1,22.56,9.14Z"/><path class="cls-2" d="M26.07,9.16c0-1.12,3.18-4.07,3.52-4.31a0.29,0.29,0,0,1,.21-0.08,3,3,0,0,1,1,1,0.28,0.28,0,0,1-.09.19C28,8.6,27.39,9.22,27.39,9.44a0.07,0.07,0,0,0,.08.08,5.58,5.58,0,0,0,2.06-1.15,4.49,4.49,0,0,1,.88-0.63,0.51,0.51,0,0,1,.26.37,0.39,0.39,0,0,1-.1.21c-0.4.55-2.6,2.12-3.3,2.12A1.24,1.24,0,0,1,26.07,9.16Z"/><path class="cls-1" d="M31.06,3.77a1.21,1.21,0,0,1,1.07-1.11,0.92,0.92,0,0,1,.72.86A1.51,1.51,0,0,1,31.8,4.66,1,1,0,0,1,31.06,3.77Z"/><path class="cls-2" d="M34.75,9.31a3.17,3.17,0,0,1,1.18-1.8A0.13,0.13,0,0,0,36,7.42a0,0,0,0,0-.05-0.05,0.2,0.2,0,0,0-.1,0A15.5,15.5,0,0,0,33,10.24a0.16,0.16,0,0,1-.13.06,1.48,1.48,0,0,1-.75-1.16c0-.3.31-0.64,1.73-2.12a0.22,0.22,0,0,0,.08-0.12,0,0,0,0,0,0,0,0.21,0.21,0,0,0-.12.05A17,17,0,0,0,30,10.24a0.2,0.2,0,0,1-.13.08,0.18,0.18,0,0,1-.12-0.08A2.8,2.8,0,0,1,29.08,9c0-.52,2.1-2,3.52-3.85a0.56,0.56,0,0,1,.35-0.26,1.11,1.11,0,0,1,.7.77,1,1,0,0,1-.28.67,5.4,5.4,0,0,1,2.09-1.2,0.87,0.87,0,0,1,.85.64,1.33,1.33,0,0,1-.28.55,0.29,0.29,0,0,0-.06.13,0,0,0,0,0,0,0,0.37,0.37,0,0,0,.1-0.05,9.2,9.2,0,0,1,2.56-1.15,1.2,1.2,0,0,1,.88.9,0.19,0.19,0,0,1-.09.18A21.39,21.39,0,0,0,36.29,9a0.4,0.4,0,0,0-.1.24c0,0.1.08,0.18,0.28,0.18a7.11,7.11,0,0,0,2.64-1.76,0.86,0.86,0,0,1,.32-0.26,0.54,0.54,0,0,1,.31.41c0,0.41-2.43,2.61-3.79,2.61a1.26,1.26,0,0,1-.44-0.09A1.09,1.09,0,0,1,34.75,9.31Z"/><path class="cls-2" d="M39.37,9.63a1.23,1.23,0,0,1-.45-1,3.35,3.35,0,0,1,.53-1.56A18,18,0,0,1,42.6,3.52c2-2,2.83-2.72,3.54-3.32A0.54,0.54,0,0,1,46.48,0a1.79,1.79,0,0,1,.79,1,0.37,0.37,0,0,1-.08.19C46.68,1.88,45,3,43,4.94a1.6,1.6,0,0,1,1.11.46,1.36,1.36,0,0,1,.58.9,1.73,1.73,0,0,1-.13.59c-0.48,1.16-2.42,3.66-3.79,3.66A2,2,0,0,1,39.37,9.63Zm1.08-.4a1.45,1.45,0,0,0,.85-0.48c0.68-.58,2.16-2.31,2.19-3a0.22,0.22,0,0,0-.24-0.21c-0.8,0-3,2.65-3,3.41A0.21,0.21,0,0,0,40.45,9.23Z"/><path class="cls-2" d="M46.57,7.38a3.82,3.82,0,0,0-1,2,0.37,0.37,0,0,0,.45.37c1,0,2.85-1.33,3.9-2.21a0.52,0.52,0,0,1,.28-0.15,0.38,0.38,0,0,1,.24.4c0,0.37-2.7,2.76-4.53,2.76A1.71,1.71,0,0,1,44.3,8.78C44.3,6.9,47.66,3.59,50,2A5.42,5.42,0,0,1,52.18.9,1.71,1.71,0,0,1,53.8,2.23a1.35,1.35,0,0,1-.42.85c-1.43,1.64-5.77,4.6-6.34,4.6A0.51,0.51,0,0,1,46.57,7.38Zm0.55-.67a0.1,0.1,0,0,0,.09.08c0.31,0,5.4-3.89,5.4-4.53C52.61,2.1,52.55,2,52.43,2A29.32,29.32,0,0,0,47.12,6.71Z"/><path class="cls-2" d="M50.87,9.28a50.73,50.73,0,0,0,5.31-4.17,0.77,0.77,0,0,1,.39-0.17,1.21,1.21,0,0,1,1,1,8.28,8.28,0,0,1-1.25,1.27A52.82,52.82,0,0,0,50,14.59a2,2,0,0,1-.46.64A1.44,1.44,0,0,1,48.75,14,3.91,3.91,0,0,1,50,11.76c0.77-.89,1.4-1.52,2.37-2.47a0.21,0.21,0,0,0,.06-0.12,0,0,0,0,0,0,0,0.16,0.16,0,0,0-.09.05c-1.64,1.35-1.93,1.35-2.11,1.35a0.94,0.94,0,0,1-.8-0.72,2.49,2.49,0,0,1-.24-0.86c0-1.31,1.76-2.56,3.88-4.25a0.27,0.27,0,0,1,.15,0,1.57,1.57,0,0,1,1.18.94,0.08,0.08,0,0,1-.05.08A29.14,29.14,0,0,0,50.61,9a0.31,0.31,0,0,0-.08.18,0.17,0.17,0,0,0,.18.18A0.31,0.31,0,0,0,50.87,9.28Z"/><path class="cls-2" d="M12.4,6a2,2,0,0,0-1.29-.52,1.93,1.93,0,0,0-1.38-.9c-1.6,0-4.07,2.25-4.67,3.76a1.22,1.22,0,0,0-.12.45,2,2,0,0,0,1.18,1.67,2.2,2.2,0,0,0,1.23-.62l-0.23.32L6,11.45C4.62,12.84,3.45,14,2,14a5.13,5.13,0,0,1-1.76-.45,0.2,0.2,0,0,0-.19.19,0.42,0.42,0,0,0,.2.3,5.07,5.07,0,0,0,2.73,1c2,0,4-2.23,4.75-3.1s4.23-5.13,4.7-5.57a0.34,0.34,0,0,0,.13-0.21A0.32,0.32,0,0,0,12.4,6ZM10,6.79A22.12,22.12,0,0,1,6.63,9.47a0.23,0.23,0,0,1-.19-0.27,4.48,4.48,0,0,1,1.2-1.53,9.51,9.51,0,0,1,2.59-1.83,0.36,0.36,0,0,1,.3.33A2.39,2.39,0,0,1,10,6.79Z"/><path class="cls-3" d="M71.65,6c-0.52-1.11-3-2.51-4.54-3.07a2.85,2.85,0,0,0-1.34-.28,0.85,0.85,0,0,0-.4,1.05,1.09,1.09,0,0,0,.43.43c0.27,0.18,1.9.88,2.24,1a1.53,1.53,0,0,1,.58.42c0.37,0.47-.68.56-0.9,0.56A12.67,12.67,0,0,0,65,6.25c-2,.45-2.8,2.13-2.81,4,0,0.32.5,0.25,0.6,0C63.11,9.58,65,6.88,66,7.9c0.55,0.57-.4,1.8-1.17,2.59-0.24.21-.47,0.42-0.69,0.64s0.16,0.5.41,0.3a6.57,6.57,0,0,0,.56-0.52q0.45-.39.94-0.75a4.77,4.77,0,0,1,1.31-.71,0.72,0.72,0,0,1,.51,0c-0.56.84-1.39,2-1.54,1.9s-0.75.14-.46,0.37c0.76,0.61,1.73-.92,2.06-1.38l0.41-.59c0.23,0.19.51,0.37,0.67,0.52s0.65-.08.38-0.33a6.07,6.07,0,0,0-.77-0.63l0.5-.77c0.14-.21.28-0.42,0.43-0.62a1.64,1.64,0,0,1,.79-0.42,8.07,8.07,0,0,1,1-.22A0.93,0.93,0,0,0,71.65,6ZM69.14,7.65a6.84,6.84,0,0,0-.75,1.08l-0.24.37a1.88,1.88,0,0,0-1.5.15l-0.3.16c0.49-.81.69-1.62-0.06-2-1.17-.61-2.51.51-3.36,1.65A2.83,2.83,0,0,1,64.32,7a5.65,5.65,0,0,1,3.08-.36c0.68,0,1.87,0,1.79-.93a1.82,1.82,0,0,0-1.4-1.23c-0.88-.4-1.68-0.48-1.9-0.9A0.29,0.29,0,0,1,66,3.12a1.2,1.2,0,0,1,.7.13,17.74,17.74,0,0,1,2.06,1,7.66,7.66,0,0,1,2.1,1.53,2,2,0,0,1,.42.7,0.37,0.37,0,0,1-.21.4c-0.13,0-.92.21-1.13,0.31A1.78,1.78,0,0,0,69.14,7.65Z"/></svg>